<svg id="Layer_1" data-name="Layer 1" xmlns="http://www.w3.org/2000/svg" viewBox="0 0 699 188"><path d="M41,30.82H59.31l14,86.26H59.8L57.34,100v.25H41.93l-2.46,16.88H26.9ZM55.74,88.49l-6-42.63h-.25L43.54,88.49Z"/><path d="M96,30.82h13.68l8.87,66.92h.25l8.87-66.92h12.44l-13.06,86.26h-18Z"/><path d="M146.67,30.82h13.56v86.26H146.67Z"/><path d="M170.33,30.82H191c13.56,0,20.21,7.52,20.21,21.32V95.76c0,13.81-6.65,21.32-20.21,21.32h-20.7Zm20.46,73.94c4.31,0,6.9-2.22,6.9-8.38V51.52c0-6.16-2.59-8.38-6.9-8.38h-6.9v61.62Z"/><path d="M230.59,30.82H249L263,117.08H249.44L247,100v.25H231.57l-2.46,16.88H216.54Zm14.79,57.67-6-42.63h-.25l-5.91,42.63Z"/><path d="M289.24,30.82h37V43.14H302.8v22.8h18.61V78.26H302.8v26.5h23.41v12.32h-37Z"/><path d="M334,30.82h19.35L362,92.56h.24l8.63-61.74h19.35v86.26H377.35V51.77h-.25l-9.86,65.31H355.91l-9.86-65.31h-.25v65.31H334Z"/><path d="M419.49,96.63V30.82h13.56V97.61c0,6.16,2.58,8.38,6.9,8.38s6.9-2.22,6.9-8.38V30.82h13.06V96.63c0,13.8-6.9,21.68-20.21,21.68S419.49,110.43,419.49,96.63Z"/><path d="M469.52,30.82h19.35l8.62,61.74h.25l8.63-61.74h19.34v86.26H512.9V51.77h-.25l-9.86,65.31H491.46L481.6,51.77h-.25v65.31H469.52Z"/><path d="M555.53,30.82h20.7c13.56,0,20.21,7.52,20.21,21.32V95.76c0,13.81-6.65,21.32-20.21,21.32h-20.7ZM576,104.76c4.31,0,6.9-2.22,6.9-8.38V51.52c0-6.16-2.59-8.38-6.9-8.38h-6.9v61.62Z"/><path d="M605.56,30.82h13.56v86.26H605.56Z"/><path d="M639.69,30.82h18.36l14.05,86.26H658.55L656.08,100v.25h-15.4l-2.47,16.88H625.64Zm14.79,57.67-6-42.63h-.24l-5.92,42.63Z"/><path d="M112.52,133.63h6.26L123.57,163H119l-.84-5.84v.08h-5.25L112,163h-4.29Zm5,19.66-2.06-14.53h-.08l-2,14.53Z"/><path d="M132.51,133.63h4.62v12h5v-12h4.62V163h-4.62V149.81h-5V163h-4.62Z"/><path d="M150.15,133.63h4.62V163h-4.62Z"/><path d="M157.42,156.07v-1.68h4.37v2c0,2.1.92,2.86,2.39,2.86s2.4-.76,2.4-2.94c0-2.44-.93-4-4-6.64-3.87-3.4-5.13-5.8-5.13-9.16,0-4.62,2.4-7.31,6.89-7.31s6.72,2.69,6.72,7.4v1.22h-4.37v-1.52c0-2.1-.84-2.9-2.31-2.9s-2.31.8-2.31,2.82,1,3.7,4,6.34c3.87,3.4,5.09,5.76,5.09,9.41,0,4.79-2.44,7.48-7,7.48S157.42,160.77,157.42,156.07Z"/><path d="M177.45,137.84h-4.83v-4.21H186.9v4.21h-4.83V163h-4.62Z"/><path d="M188.62,156.07V140.61c0-4.71,2.48-7.4,7-7.4s7,2.69,7,7.4v15.46c0,4.7-2.48,7.39-7,7.39S188.62,160.77,188.62,156.07Zm7.44-29.24h5l-4.49,4.83h-3.49Zm2,29.53V140.31c0-2.1-.92-2.9-2.39-2.9s-2.39.8-2.39,2.9v16.05c0,2.1.92,2.9,2.39,2.9S198,158.46,198,156.36Z"/><path d="M205.76,133.63h6.85c4.79,0,6.85,2.23,6.85,6.77v1.8c0,3-1,5-3,5.8v.08c2.31.72,3.07,2.9,3.07,6.22v5.17A8.68,8.68,0,0,0,220,163h-4.7a8.9,8.9,0,0,1-.42-3.61v-5.38c0-2.73-.8-3.61-2.9-3.61h-1.6V163h-4.62Zm6.3,12.61c1.72,0,2.77-.76,2.77-3.11v-2.27c0-2.1-.71-3-2.35-3h-2.1v8.4Z"/><path d="M222.69,133.63h4.62V163h-4.62Z"/><path d="M234.32,133.63h6.26L245.37,163h-4.62l-.84-5.84v.08h-5.25l-.84,5.76h-4.29Zm5,19.66-2.06-14.53h-.08l-2,14.53Z"/><path d="M254.31,133.63h7.06c4.62,0,6.89,2.57,6.89,7.27v14.87c0,4.71-2.27,7.27-6.89,7.27h-7.06Zm7,25.21c1.47,0,2.36-.76,2.36-2.86V140.69c0-2.1-.89-2.85-2.36-2.85h-2.35v21Z"/><path d="M271.36,133.63H284v4.21h-8v7.77h6.35v4.2H276v9h8V163h-12.6Z"/><path d="M293.16,156.07V133.63h4.62V156.4c0,2.1.88,2.86,2.35,2.86s2.36-.76,2.36-2.86V133.63h4.45v22.44c0,4.7-2.35,7.39-6.89,7.39S293.16,160.77,293.16,156.07Z"/><path d="M310.21,133.63h6.6l2.94,21.05h.08l2.94-21.05h6.6V163H325V140.78h-.08L321.55,163h-3.86l-3.36-22.26h-.08V163h-4Z"/><path d="M339.36,156.07V133.63H344V156.4c0,2.1.88,2.86,2.35,2.86s2.36-.76,2.36-2.86V133.63h4.45v22.44c0,4.7-2.35,7.39-6.89,7.39S339.36,160.77,339.36,156.07Zm7.31-29.24h5l-4.5,4.83h-3.48Z"/><path d="M356.41,133.63h5.8l4.49,17.61h.09V133.63h4.11V163h-4.74l-5.55-21.47h-.08V163h-4.12Z"/><path d="M374.35,133.63H379V163h-4.62Z"/><path d="M382.12,156.23V140.44c0-4.54,2.35-7.23,6.8-7.23s6.81,2.69,6.81,7.23v3.11h-4.37v-3.41c0-1.93-.93-2.73-2.31-2.73s-2.31.8-2.31,2.73v16.43c0,1.93.92,2.69,2.31,2.69s2.31-.76,2.31-2.69v-4.49h4.37v4.15c0,4.54-2.36,7.23-6.81,7.23S382.12,160.77,382.12,156.23Z"/><path d="M398.24,156.07V140.61c0-4.71,2.48-7.4,7-7.4s7,2.69,7,7.4v15.46c0,4.7-2.48,7.39-7,7.39S398.24,160.77,398.24,156.07Zm9.41.29V140.31c0-2.1-.92-2.9-2.39-2.9s-2.4.8-2.4,2.9v16.05c0,2.1.93,2.9,2.4,2.9S407.65,158.46,407.65,156.36Z"/><path d="M422.1,133.63h7.06c4.62,0,6.88,2.57,6.88,7.27v14.87c0,4.71-2.26,7.27-6.88,7.27H422.1Zm7,25.21c1.47,0,2.35-.76,2.35-2.86V140.69c0-2.1-.88-2.85-2.35-2.85h-2.35v21Z"/><path d="M439.15,133.63h4.62V163h-4.62Z"/><path d="M450.78,133.63H457L461.83,163h-4.62l-.84-5.84v.08h-5.25l-.84,5.76H446Zm5.05,19.66-2.06-14.53h-.09l-2,14.53Z"/><path d="M470.78,133.63h5.79l4.5,17.61h.08V133.63h4.12V163h-4.75L475,141.57h-.09V163h-4.11Z"/><path d="M492.28,133.63h6.26L503.33,163h-4.62l-.84-5.84v.08h-5.25l-.84,5.76h-4.29Zm5,19.66-2.06-14.53h-.08l-2,14.53Z"/><path d="M515.88,137.84h-4.83v-4.21h14.28v4.21H520.5V163h-4.62Z"/><path d="M527.56,133.63h12.6v4.21h-8v7.77h6.34v4.2h-6.34v9h8V163h-12.6Z"/><path d="M542.8,133.63h6.85c4.79,0,6.85,2.23,6.85,6.77v1.8c0,3-1,5-3,5.8v.08c2.31.72,3.07,2.9,3.07,6.22v5.17A8.68,8.68,0,0,0,557,163h-4.7a9.1,9.1,0,0,1-.42-3.61v-5.38c0-2.73-.8-3.61-2.9-3.61h-1.6V163H542.8Zm6.31,12.61c1.72,0,2.77-.76,2.77-3.11v-2.27c0-2.1-.72-3-2.35-3h-2.11v8.4Z"/><path d="M559.73,133.63h6.85c4.79,0,6.84,2.23,6.84,6.77v1.8c0,3-1,5-3,5.8v.08c2.31.72,3.07,2.9,3.07,6.22v5.17A8.68,8.68,0,0,0,574,163h-4.7a8.9,8.9,0,0,1-.42-3.61v-5.38c0-2.73-.8-3.61-2.9-3.61h-1.6V163h-4.62Zm6.3,12.61c1.72,0,2.77-.76,2.77-3.11v-2.27c0-2.1-.71-3-2.35-3h-2.1v8.4Z"/><path d="M580.23,133.63h6.26L591.27,163h-4.62l-.84-5.84v.08h-5.25l-.84,5.76h-4.28Zm5,19.66-2.06-14.53h-.09l-2,14.53Z"/></svg>